<svg id="OBJECTS" xmlns="http://www.w3.org/2000/svg" xmlns:xlink="http://www.w3.org/1999/xlink" viewBox="0 0 446.35 252.02"><defs><style>.cls-1,.cls-20,.cls-31,.cls-33,.cls-43,.cls-44{fill:none;}.cls-2,.cls-6{fill:#302c2e;}.cls-2{opacity:0.3;}.cls-3{fill:#494949;}.cls-21,.cls-4{fill:#5c6569;}.cls-5{fill:#3f3f3f;}.cls-7{fill:#606060;}.cls-8{fill:#9e9e9e;}.cls-9{fill:#4c4c4c;}.cls-10{fill:#251a1e;}.cls-11{fill:#666;}.cls-12{fill:#595959;}.cls-13{fill:#3c3c3c;}.cls-14{fill:#7a7a7a;}.cls-15{fill:#121212;}.cls-16{fill:#424242;}.cls-17{fill:#353535;}.cls-18{fill:#fff;}.cls-19{fill:#4f5659;}.cls-20,.cls-44{stroke:#d1d2d3;}.cls-20,.cls-21,.cls-31,.cls-33,.cls-35,.cls-41,.cls-42,.cls-43,.cls-44{stroke-miterlimit:10;}.cls-20,.cls-35{stroke-width:1.5px;}.cls-21,.cls-33,.cls-43{stroke:#3f3f3f;}.cls-21,.cls-33,.cls-41,.cls-42{stroke-width:2px;}.cls-22,.cls-41{fill:#ec2026;}.cls-23{fill:#2363af;}.cls-24{fill:#a0a0a0;}.cls-25{fill:#bf223d;}.cls-26{fill:#28306a;}.cls-27{fill:#dd283e;}.cls-28{fill:#bcb7b8;}.cls-29{fill:#2769c9;}.cls-30{fill:#4a5356;}.cls-31{stroke:#5e5e5e;}.cls-31,.cls-43,.cls-44{stroke-width:3px;}.cls-32{fill:#1b23b3;}.cls-34,.cls-40{fill:#383c3d;}.cls-34,.cls-39{opacity:0.5;}.cls-35,.cls-36,.cls-42{fill:#ddd;}.cls-35{stroke:#919191;}.cls-37{fill:#919191;}.cls-38{clip-path:url(#clip-path);}.cls-41{stroke:#b7b7b7;}.cls-42{stroke:#ec2026;}.cls-44{stroke-linecap:round;}.cls-45{fill:#cacaca;}.cls-46{clip-path:url(#clip-path-2);}</style><clipPath id="clip-path" transform="translate(-30.61 -130.39)"><path class="cls-1" d="M54.59,260.83l5.8.24a3.12,3.12,0,0,1,2.84,2.19l4.23,13.62a3.1,3.1,0,0,1-3.1,4l-9.56-.41a3.12,3.12,0,0,1-3-3l-.47-13.45A3.12,3.12,0,0,1,54.59,260.83Z"/></clipPath><clipPath id="clip-path-2" transform="translate(-30.61 -130.39)"><path class="cls-1" d="M156.49,280.87l4.76-12.49a4.19,4.19,0,0,1,3.82-2.81h26.74A4.41,4.41,0,0,1,196,270.2v12.49a4.41,4.41,0,0,1-4.15,4.63h-31.5C157.33,287.32,155.33,283.93,156.49,280.87Z"/></clipPath></defs><title>ambulance</title><ellipse class="cls-2" cx="253.78" cy="339.52" rx="223.33" ry="42.04" transform="translate(-43.5 -120.36) rotate(-2.21)"/><polygon class="cls-3" points="391.94 187.39 367.93 185.39 364.1 144.61 381.16 140.28 392.24 144.48 397.84 159.93 391.94 187.39"/><polygon class="cls-3" points="242.7 202.23 230.61 202.23 192.89 160.19 225.17 151.86 239.18 157.57 245.94 192.07 242.7 202.23"/><polygon class="cls-4" points="115.72 16.68 115.72 13.46 214.73 13.77 214.73 16.68 115.72 16.68"/><rect class="cls-5" x="56.54" y="209.92" width="22.12" height="14.61" rx="4.22" transform="translate(11.53 -139.24) rotate(10.86)"/><path class="cls-6" d="M246.4,359.91l-28-3.22s-11.71-7.54-8.08-37.05c1.69-13.78,5.74-19.52,13.2-29.05h26.42Z" transform="translate(-30.61 -130.39)"/><path class="cls-7" d="M261.67,322.92c0,9.13-3.72,22.1-13.08,24.59-6.71,1.78-13-7.67-13.07-19.88,0-9.15,3.76-22,13.07-24.58C255.3,301.2,261.63,310.65,261.67,322.92Z" transform="translate(-30.61 -130.39)"/><path class="cls-8" d="M248.59,304.43c6.77-1.44,12.27,7.06,12.27,18.6s-5.5,21.71-12.27,23.1-12.26-7.13-12.26-18.6,5.5-21.65,12.26-23.1m0-2.9c-10.36,3.51-14,16.4-14,26.21-.2,8.05,3.11,22.44,14,21.28,10.42-3.42,14-16.42,14-26.2.2-8-3.07-22.57-14-21.29Z" transform="translate(-30.61 -130.39)"/><path class="cls-8" d="M255.92,323.81c0,6.89-3.28,13.09-7.33,13.92s-7.32-4.12-7.32-11,3.28-13.06,7.32-13.92S255.92,316.92,255.92,323.81Z" transform="translate(-30.61 -130.39)"/><path class="cls-7" d="M250.81,324.82c0,2.08-1,4-2.22,4.22s-2.21-1.22-2.21-3.3,1-4,2.21-4.23S250.81,322.74,250.81,324.82Z" transform="translate(-30.61 -130.39)"/><path class="cls-9" d="M249.92,325c0,1.25-.59,2.38-1.33,2.53s-1.32-.73-1.32-2,.59-2.37,1.32-2.52S249.92,323.76,249.92,325Z" transform="translate(-30.61 -130.39)"/><path class="cls-7" d="M249.15,325.16c0,.52-.25,1-.56,1.06s-.55-.3-.55-.83.25-1,.55-1.06S249.15,324.64,249.15,325.16Z" transform="translate(-30.61 -130.39)"/><path class="cls-10" d="M268.44,324h.05c.18,0,.35-.2.35-.52,0-1.07,0-2.15,0-3.24s-.11-2.16-.21-3.21c0-.31-.21-.51-.39-.44l0,0c-.18.08-.36-.12-.39-.43h0c0-.31.09-.6.27-.65h0c.19,0,.31-.35.27-.66-.13-1-.29-2.08-.49-3.11s-.43-2-.68-3c-.07-.29-.28-.4-.44-.24l0,0c-.16.15-.36.05-.44-.23h0a.76.76,0,0,1,.17-.75l0,0a.74.74,0,0,0,.17-.75c-.28-.94-.59-1.87-.93-2.76s-.71-1.75-1.1-2.56c-.11-.24-.33-.25-.47,0l0,0c-.14.23-.34.22-.46,0v0a.86.86,0,0,1,.05-.78l0,0a.82.82,0,0,0,0-.8c-.41-.76-.85-1.5-1.31-2.19a21,21,0,0,0-1.45-1.9c-.14-.17-.36-.08-.46.2l0,.06c-.1.28-.31.37-.46.21h0a.79.79,0,0,1-.07-.77l0-.06a.8.8,0,0,0-.07-.78,15.38,15.38,0,0,0-1.61-1.44,13.45,13.45,0,0,0-1.71-1.11c-.17-.09-.36.1-.42.41l0,.06c-.06.3-.25.49-.42.41h0a.64.64,0,0,1-.17-.69v-.07c.08-.3,0-.62-.18-.7a10.35,10.35,0,0,0-1.81-.59,9.7,9.7,0,0,0-1.85-.26c-.19,0-.35.25-.37.57v.07c0,.31-.18.57-.36.57h0c-.18,0-.31-.26-.28-.57v-.07c0-.32-.1-.58-.28-.58a11.38,11.38,0,0,0-1.9.25,13.19,13.19,0,0,0-1.89.57.7.7,0,0,0-.28.69v.07a.71.71,0,0,1-.28.69h0c-.18.08-.34-.11-.36-.41v-.07c0-.32-.18-.51-.37-.42a17.12,17.12,0,0,0-1.86,1c-.61.4-1.22.84-1.81,1.31a.84.84,0,0,0-.18.77l0,.05a.79.79,0,0,1-.18.77h0c-.17.15-.36,0-.42-.25l0-.06c-.06-.28-.25-.4-.42-.24a22.8,22.8,0,0,0-1.71,1.7c-.56.61-1.1,1.26-1.61,1.94a.82.82,0,0,0-.07.79l0,0a.85.85,0,0,1-.07.79h0c-.15.2-.36.17-.46-.07l0-.06c-.1-.25-.32-.28-.46-.07-.5.71-1,1.46-1.45,2.26s-.9,1.61-1.31,2.45a.77.77,0,0,0,.05.78l0,.05a.8.8,0,0,1,.05.77v0c-.12.24-.32.29-.46.1l0-.06c-.14-.2-.36-.15-.47.11-.39.86-.75,1.76-1.1,2.7s-.65,1.88-.93,2.84a.72.72,0,0,0,.16.74l0,0a.7.7,0,0,1,.17.73h0c-.08.28-.28.41-.44.27l0,0c-.16-.14-.37,0-.44.28-.25,1-.48,2-.68,3s-.36,2.07-.49,3.1c0,.31.08.61.27.65h0c.18,0,.3.33.26.63h0c0,.31-.21.52-.39.44h0c-.18-.07-.36.13-.39.44-.1,1.05-.17,2.11-.21,3.19s-.05,2.15,0,3.21c0,.32.18.56.36.52h.05c.18,0,.34.19.35.5h0c0,.31-.13.58-.31.59h0c-.18,0-.33.28-.31.59,0,1.06.14,2.12.26,3.18s.27,2.1.45,3.12c.05.3.24.45.42.34l0,0c.17-.11.36,0,.42.33h0a.68.68,0,0,1-.22.71l0,0a.66.66,0,0,0-.22.7c.21,1,.45,2,.72,2.95s.57,1.9.89,2.8c.09.26.31.32.46.13l0,0c.15-.19.36-.13.46.13h0a.8.8,0,0,1-.11.77l0,0a.78.78,0,0,0-.1.78c.35.85.72,1.69,1.13,2.49s.84,1.55,1.28,2.25c.13.21.35.17.47-.09l0-.06c.12-.25.33-.29.46-.09h0a.85.85,0,0,1,0,.79l0,.05a.82.82,0,0,0,0,.79,22.78,22.78,0,0,0,1.47,1.84,18.9,18.9,0,0,0,1.59,1.53c.16.13.37,0,.45-.3l0-.07c.08-.29.28-.43.44-.3h0a.73.73,0,0,1,.12.74l0,.06a.72.72,0,0,0,.13.75,12.3,12.3,0,0,0,1.72,1,12.14,12.14,0,0,0,1.8.7c.18.06.36-.17.4-.48v-.08c0-.31.21-.53.39-.49h0c.18,0,.28.33.23.63v.08c-.06.31,0,.61.23.64a10.48,10.48,0,0,0,1.86.2,10.79,10.79,0,0,0,1.89-.14c.19,0,.34-.33.33-.64s0-.39,0-.65l.34,0,.35-.08,0,.65c0,.32.14.55.32.5a12.64,12.64,0,0,0,1.89-.62A15.49,15.49,0,0,0,253,358a.73.73,0,0,0,.23-.73v-.07a.76.76,0,0,1,.23-.73h0c.18-.11.35,0,.39.33v.07c0,.31.22.46.4.34a19.52,19.52,0,0,0,1.79-1.35c.6-.51,1.17-1.05,1.73-1.63a.8.8,0,0,0,.12-.78l0-.06a.85.85,0,0,1,.12-.78h0c.15-.18.36-.1.44.17l0,.06c.08.27.29.35.45.16q.81-.93,1.59-2c.51-.71,1-1.45,1.47-2.21a.82.82,0,0,0,0-.79l0-.05a.85.85,0,0,1,0-.79h0c.13-.23.34-.24.46,0l0,.05c.12.23.34.22.47,0,.44-.8.87-1.63,1.28-2.5s.78-1.76,1.13-2.67a.74.74,0,0,0-.11-.77l0,0a.76.76,0,0,1-.11-.76h0c.1-.27.31-.36.46-.19l0,0c.15.17.36.09.46-.19.32-.93.62-1.89.89-2.89s.51-2,.72-3a.65.65,0,0,0-.22-.7l0,0c-.17-.07-.27-.39-.21-.69h0c.05-.3.24-.46.42-.36l0,0c.18.11.37-.06.42-.36q.27-1.55.45-3.15c.12-1.07.21-2.14.26-3.21,0-.31-.13-.58-.31-.59h-.05c-.18,0-.32-.27-.31-.58h0C268.1,324.25,268.26,324,268.44,324Zm-19.85,25c-9.55,2.06-14-13.35-14-21.28.09-9.65,4.42-24.05,14-26.21s14,13.4,14,21.29C262.48,332.44,258.18,347,248.59,349Z" transform="translate(-30.61 -130.39)"/><path class="cls-11" d="M248.09,315.43v1l.5.38.51-.6v-1l-.51-.38Z" transform="translate(-30.61 -130.39)"/><path class="cls-12" d="M248.59,314.83l.51.38v1l-.51.6-.5-.38v-1l.5-.6m0-.43-.1.13-.51.6-.11.13v1.41l.11.09.51.39.1.08.11-.13.51-.6.11-.13V315l-.11-.08-.51-.39-.11-.08Z" transform="translate(-30.61 -130.39)"/><path class="cls-11" d="M243.27,322.13l.5.4.51-.6v-1l-.51-.4-.5.6Z" transform="translate(-30.61 -130.39)"/><path class="cls-12" d="M243.27,321.15l.5-.6.51.4v1l-.51.6-.5-.4v-1m-.22-.17v1.41l.11.08.51.4.1.08.11-.12.51-.6.11-.13v-1.41l-.11-.09-.51-.39-.11-.08-.1.12-.51.6-.11.13Z" transform="translate(-30.61 -130.39)"/><path class="cls-11" d="M243.77,332l.51-.59v-1c-.2-.16-.3-.24-.51-.39l-.5.59v1Z" transform="translate(-30.61 -130.39)"/><path class="cls-12" d="M243.27,331.59v-1l.5-.59c.21.15.31.23.51.39v1l-.51.59-.5-.39m-.22.25.11.09.51.39.1.09.11-.13.51-.59.11-.13v-1.42l-.11-.08c-.2-.16-.3-.24-.51-.39l-.11-.09-.1.13-.51.59-.11.13v1.41Z" transform="translate(-30.61 -130.39)"/><path class="cls-11" d="M249.1,335.13v-1l-.51-.39-.5.6v1l.5.39Z" transform="translate(-30.61 -130.39)"/><path class="cls-12" d="M248.59,335.73l-.5-.39v-1l.5-.6.51.39v1l-.51.6m0,.43.11-.13.51-.6.11-.13v-1.41l-.11-.09-.51-.39-.11-.08-.1.13-.51.59-.11.13v1.42l.11.08c.2.16.3.24.51.39l.1.09Z" transform="translate(-30.61 -130.39)"/><path class="cls-11" d="M253.92,328.43l-.51-.39-.5.59v1l.5.4.51-.6Z" transform="translate(-30.61 -130.39)"/><path class="cls-12" d="M253.92,329.42l-.51.6-.5-.4v-1l.5-.59.51.39v1m.22.17v-1.41l-.11-.09-.51-.4-.11-.08-.1.13-.51.59-.11.13v1.42l.11.08.51.4.1.08.11-.12.51-.6.11-.13Z" transform="translate(-30.61 -130.39)"/><path class="cls-11" d="M253.41,318.56l-.5.6v1l.5.39.51-.59v-1Z" transform="translate(-30.61 -130.39)"/><path class="cls-12" d="M253.92,319v1l-.51.59-.5-.39v-1l.5-.6.51.4m.22-.26-.11-.08-.51-.4-.11-.09-.1.13-.51.6-.11.13v1.41l.11.09c.2.16.3.24.51.39l.1.09.11-.13.51-.59.11-.13V318.7Z" transform="translate(-30.61 -130.39)"/><path class="cls-6" d="M112.21,351.45l-26.2-3s-11-7.05-7.56-34.64c1.59-12.9,5.37-18.26,12.35-27.18h24.71Z" transform="translate(-30.61 -130.39)"/><path class="cls-13" d="M126.5,316.86c0,11.52-5.48,21.61-12.23,23S102,332.72,102,321.27s5.47-21.55,12.23-23S126.5,305.34,126.5,316.86Z" transform="translate(-30.61 -130.39)"/><path class="cls-14" d="M114.27,299.57c6.32-1.35,11.47,6.61,11.47,17.39s-5.15,20.31-11.47,21.6-11.47-6.66-11.47-17.39,5.15-20.25,11.47-21.6m0-2.71c-9.69,3.28-13.13,15.34-13.07,24.5,0,12.24,5.85,21.38,13.07,19.91,9.74-3.2,13.13-15.36,13.06-24.5,0-12.31-5.85-21.46-13.06-19.91Z" transform="translate(-30.61 -130.39)"/><path class="cls-14" d="M121.12,317.69c0,6.45-3.07,12.24-6.85,13s-6.85-3.85-6.85-10.27,3.07-12.22,6.85-13S121.12,311.25,121.12,317.69Z" transform="translate(-30.61 -130.39)"/><path class="cls-13" d="M116.34,318.63c0,1.95-.93,3.72-2.07,4s-2.07-1.15-2.07-3.09.93-3.72,2.07-4S116.34,316.69,116.34,318.63Z" transform="translate(-30.61 -130.39)"/><path class="cls-15" d="M115.51,318.81c0,1.16-.56,2.22-1.24,2.36s-1.24-.68-1.24-1.85.56-2.22,1.24-2.36S115.51,317.64,115.51,318.81Z" transform="translate(-30.61 -130.39)"/><path class="cls-13" d="M114.79,319c0,.48-.23.93-.52,1s-.52-.29-.52-.78.23-.93.52-1S114.79,318.47,114.79,319Z" transform="translate(-30.61 -130.39)"/><path class="cls-10" d="M132.83,317.91h0c.18,0,.33-.19.34-.49q0-1.5,0-3c0-1-.1-2-.2-3,0-.29-.19-.48-.36-.41l0,0c-.17.07-.33-.12-.36-.4v0c0-.28.08-.56.25-.6h0c.18,0,.29-.33.26-.62-.13-1-.28-1.94-.47-2.91s-.39-1.9-.63-2.81c-.07-.26-.26-.37-.41-.22l0,0c-.15.14-.34,0-.41-.22h0a.74.74,0,0,1,.15-.7l0,0a.71.71,0,0,0,.15-.71q-.39-1.32-.87-2.58c-.32-.84-.66-1.64-1-2.39-.11-.23-.31-.23-.44,0l0,.05c-.13.21-.32.2-.43,0v0a.76.76,0,0,1,0-.73l0,0a.77.77,0,0,0,.05-.75,23,23,0,0,0-1.23-2,18.42,18.42,0,0,0-1.35-1.78c-.14-.16-.34-.07-.43.19l0,.06c-.1.25-.29.34-.43.19h0a.72.72,0,0,1-.06-.72l0-.06a.74.74,0,0,0-.06-.73,15.59,15.59,0,0,0-1.51-1.34,12.35,12.35,0,0,0-1.59-1c-.16-.09-.35.09-.4.38l0,.06c0,.28-.23.46-.39.38h0c-.16-.08-.23-.38-.16-.65v-.06c.07-.28,0-.59-.16-.66a11.66,11.66,0,0,0-1.7-.56,10.43,10.43,0,0,0-1.73-.24c-.18,0-.33.24-.35.54v.06c0,.3-.17.54-.34.54h0c-.17,0-.29-.25-.26-.54v-.06c0-.3-.09-.55-.26-.54a11,11,0,0,0-1.77.23,12.39,12.39,0,0,0-1.77.53.62.62,0,0,0-.26.65v.06a.67.67,0,0,1-.26.65h0c-.17.07-.33-.1-.34-.39v-.07c0-.29-.18-.47-.35-.39a14.93,14.93,0,0,0-1.73,1,19.64,19.64,0,0,0-1.7,1.22.75.75,0,0,0-.16.72v.06a.78.78,0,0,1-.16.71h0c-.16.14-.34,0-.4-.23v-.06c0-.26-.24-.37-.4-.23-.53.49-1.07,1-1.59,1.59s-1,1.18-1.51,1.82a.78.78,0,0,0-.06.74l0,0a.78.78,0,0,1-.06.74h0a.23.23,0,0,1-.43-.07l0-.06c-.1-.23-.3-.26-.43-.07-.47.67-.92,1.37-1.35,2.12s-.85,1.51-1.23,2.29a.72.72,0,0,0,0,.73l0,0a.73.73,0,0,1,0,.72h0c-.11.24-.3.28-.43.1l0-.05c-.13-.19-.33-.15-.44.09-.36.81-.7,1.65-1,2.53s-.61,1.76-.88,2.66a.68.68,0,0,0,.16.69l0,0a.66.66,0,0,1,.16.68h0c-.07.27-.26.39-.42.25l0,0c-.15-.14-.34,0-.41.25-.24.92-.45,1.86-.64,2.83s-.33,1.93-.46,2.9c0,.29.08.57.25.61h0c.17,0,.28.3.25.59h0c0,.29-.19.48-.36.41h0c-.17-.07-.34.12-.37.41-.09,1-.16,2-.2,3s0,2,0,3c0,.29.16.51.34.48h0c.17,0,.32.18.33.47h0c0,.29-.12.54-.3.55h0c-.17,0-.31.26-.29.55,0,1,.13,2,.24,3s.26,2,.42,2.91c.05.28.23.43.4.32l0,0c.16-.11.34,0,.39.3v0a.62.62,0,0,1-.2.65l0,0a.62.62,0,0,0-.2.66c.19.93.42,1.85.67,2.76s.54,1.78.84,2.61c.08.25.28.31.42.13l0,0c.14-.17.33-.12.42.12h0a.73.73,0,0,1-.1.72l0,0a.73.73,0,0,0-.1.72c.32.81.68,1.59,1.06,2.33s.78,1.45,1.19,2.11c.13.19.33.16.44-.08l0-.06c.11-.23.31-.27.43-.08h0a.78.78,0,0,1,0,.73l0,.05a.77.77,0,0,0,0,.74,20,20,0,0,0,1.38,1.72,16.46,16.46,0,0,0,1.48,1.43c.15.13.35,0,.42-.28l0-.07c.08-.27.27-.4.42-.28h0a.67.67,0,0,1,.11.69l0,.06a.64.64,0,0,0,.12.69,12.82,12.82,0,0,0,1.61,1A11.68,11.68,0,0,0,109,351c.17.05.34-.17.38-.46v-.07c0-.29.2-.5.37-.46h0c.16,0,.26.31.21.59v.07c-.05.29,0,.57.22.6a10.07,10.07,0,0,0,1.74.19,11.53,11.53,0,0,0,1.77-.13c.18,0,.32-.31.31-.6s0-.36,0-.6l.32-.06.32-.07,0,.61c0,.29.13.51.31.47a13.91,13.91,0,0,0,1.76-.58,15,15,0,0,0,1.75-.87.71.71,0,0,0,.22-.69v-.07a.66.66,0,0,1,.21-.67h0c.16-.1.33,0,.36.32v.06c0,.28.21.43.38.32a20.6,20.6,0,0,0,1.68-1.27c.55-.47,1.09-1,1.61-1.52a.78.78,0,0,0,.12-.73l0-.06a.81.81,0,0,1,.12-.73h0c.15-.17.34-.1.42.15l0,.06c.07.25.26.32.41.15.51-.58,1-1.19,1.49-1.85s.94-1.35,1.38-2.07a.78.78,0,0,0,0-.74l0-.05a.76.76,0,0,1,0-.73h0c.12-.21.32-.22.43,0l0,.05c.11.21.31.21.43,0,.42-.74.82-1.51,1.2-2.33s.73-1.65,1.06-2.5a.72.72,0,0,0-.1-.72l0,0a.72.72,0,0,1-.11-.71h0c.09-.25.28-.33.42-.17l0,0c.15.17.34.09.43-.17q.45-1.31.84-2.7c.25-.94.47-1.88.67-2.82a.63.63,0,0,0-.2-.66h0c-.17-.07-.26-.37-.2-.65h0c0-.28.23-.43.39-.33l0,0c.17.1.35,0,.4-.34q.24-1.44.42-2.94t.24-3c0-.29-.12-.55-.29-.55h-.05c-.17,0-.3-.25-.29-.55h0C132.51,318.1,132.66,317.88,132.83,317.91Zm-18.56,23.36c-6.71,1.78-13-7.71-13.07-19.91,0-9.13,3.77-21.94,13.07-24.5,6.7-1.85,13,7.64,13.06,19.91C127.37,325.88,123.61,338.79,114.27,341.27Z" transform="translate(-30.61 -130.39)"/><path class="cls-16" d="M113.8,309.85v.93l.47.36.47-.56v-.93l-.47-.36Z" transform="translate(-30.61 -130.39)"/><path class="cls-17" d="M114.27,309.29l.47.36v.93l-.47.56-.47-.36v-.93l.47-.56m0-.4-.1.12-.47.56-.1.13V311l.1.08.47.36.1.08.1-.12.47-.56.1-.13v-1.32l-.1-.08-.47-.36-.1-.08Z" transform="translate(-30.61 -130.39)"/><path class="cls-16" d="M109.29,316.12l.47.37.47-.55V315l-.47-.36-.47.55Z" transform="translate(-30.61 -130.39)"/><path class="cls-17" d="M109.29,315.2l.47-.55.47.36v.93l-.47.55-.47-.37v-.92m-.2-.16v1.32l.1.08.47.37.1.08.1-.12.47-.55.11-.12v-1.33l-.11-.08-.47-.36-.1-.08-.1.12-.47.55-.1.12Z" transform="translate(-30.61 -130.39)"/><path class="cls-16" d="M109.76,325.33l.47-.55v-.92l-.47-.37-.47.55V325Z" transform="translate(-30.61 -130.39)"/><path class="cls-17" d="M109.29,325V324l.47-.55.47.37v.92l-.47.55-.47-.37m-.2.24.1.08.47.37.1.08.1-.12.47-.55.11-.12v-1.32l-.11-.08-.47-.37-.1-.08-.1.12-.47.55-.1.12v1.32Z" transform="translate(-30.61 -130.39)"/><path class="cls-16" d="M114.74,328.28v-.92l-.47-.37-.47.56v.92l.47.37Z" transform="translate(-30.61 -130.39)"/><path class="cls-17" d="M114.27,328.84l-.47-.37v-.92l.47-.56.47.37v.92l-.47.56m0,.4.1-.12.47-.56.1-.12v-1.33l-.1-.07-.47-.37-.1-.08-.1.12-.47.56-.1.12v1.33l.1.07.47.37.1.08Z" transform="translate(-30.61 -130.39)"/><path class="cls-16" d="M119.25,322l-.47-.38-.47.56v.93l.47.37c.18-.23.28-.34.47-.56Z" transform="translate(-30.61 -130.39)"/><path class="cls-17" d="M119.25,322.94c-.19.22-.29.33-.47.56l-.47-.37v-.93l.47-.56.47.38v.92m.2.16v-1.32l-.1-.08-.47-.37-.1-.08-.11.12-.47.55-.1.12v1.33l.1.08.47.37.11.08.1-.12.47-.56.1-.12Z" transform="translate(-30.61 -130.39)"/><path class="cls-16" d="M118.78,312.78l-.47.56v.93l.47.37c.18-.23.28-.34.47-.56v-.93Z" transform="translate(-30.61 -130.39)"/><path class="cls-17" d="M119.25,313.15v.93c-.19.22-.29.33-.47.56l-.47-.37v-.93l.47-.56.47.37m.2-.24-.1-.08-.47-.37-.1-.08-.11.12c-.18.23-.28.34-.47.56l-.1.12v1.33l.1.08.47.37.11.07.1-.12.47-.55.1-.12v-1.33Z" transform="translate(-30.61 -130.39)"/><path class="cls-6" d="M400.68,335.16l-24.62-2.84s-10.29-6.62-7.1-32.55c1.49-12.11,5-17.15,11.6-25.53h23.22Z" transform="translate(-30.61 -130.39)"/><path class="cls-7" d="M414.11,302.65c0,10.83-5.15,20.31-11.5,21.61s-11.49-6.7-11.49-17.46,5.15-20.25,11.49-21.61S414.11,291.83,414.11,302.65Z" transform="translate(-30.61 -130.39)"/><path class="cls-8" d="M402.61,286.41c5.95-1.27,10.78,6.2,10.78,16.34s-4.83,19.08-10.78,20.29-10.77-6.26-10.77-16.34,4.83-19,10.77-20.29m0-2.55c-6.78,1.45-12.27,11.53-12.27,23s5.49,20.08,12.27,18.7,12.28-11.46,12.28-23-5.5-20.15-12.28-18.7Z" transform="translate(-30.61 -130.39)"/><path class="cls-8" d="M409.05,303.44c0,6.05-2.88,11.5-6.44,12.23s-6.43-3.62-6.43-9.66,2.88-11.48,6.43-12.23S409.05,297.38,409.05,303.44Z" transform="translate(-30.61 -130.39)"/><path class="cls-7" d="M404.56,304.32c0,1.83-.87,3.49-1.95,3.71s-1.94-1.07-1.94-2.9.87-3.49,1.94-3.71S404.56,302.49,404.56,304.32Z" transform="translate(-30.61 -130.39)"/><path class="cls-9" d="M403.78,304.48c0,1.09-.52,2.09-1.17,2.22s-1.16-.64-1.16-1.73.52-2.09,1.16-2.22S403.78,303.39,403.78,304.48Z" transform="translate(-30.61 -130.39)"/><path class="cls-7" d="M403.1,304.62c0,.46-.22.88-.49.94s-.49-.27-.49-.73.22-.88.49-.94S403.1,304.16,403.1,304.62Z" transform="translate(-30.61 -130.39)"/><path class="cls-10" d="M420.06,303.64h0c.17,0,.31-.18.32-.46,0-.94,0-1.89,0-2.84s-.1-1.9-.19-2.83c0-.27-.19-.45-.35-.38h0c-.16.07-.31-.1-.34-.37h0c0-.27.07-.53.23-.57h0c.16,0,.27-.31.23-.58-.11-.92-.26-1.83-.43-2.74s-.37-1.78-.59-2.64c-.07-.25-.25-.34-.39-.21l0,0c-.14.14-.31,0-.38-.2h0a.66.66,0,0,1,.14-.66l0,0a.67.67,0,0,0,.15-.67c-.25-.82-.52-1.63-.82-2.42s-.62-1.54-1-2.25c-.1-.21-.29-.22-.41,0l0,.05c-.12.2-.31.19-.41,0v0a.71.71,0,0,1,.05-.68l0-.05a.7.7,0,0,0,0-.7,21.25,21.25,0,0,0-1.16-1.92,18.91,18.91,0,0,0-1.27-1.68c-.13-.15-.31-.07-.4.18l0,.06c-.09.24-.27.32-.4.18h0a.7.7,0,0,1-.06-.68l0,0a.72.72,0,0,0-.06-.69,13.92,13.92,0,0,0-1.42-1.26,11.32,11.32,0,0,0-1.5-1c-.15-.08-.32.09-.37.36V276c-.05.26-.22.43-.37.35h0c-.15-.07-.22-.35-.15-.61v-.06c.07-.26,0-.55-.16-.61a9.57,9.57,0,0,0-1.59-.53,9.12,9.12,0,0,0-1.63-.22c-.16,0-.31.22-.32.5v.06c0,.28-.15.5-.31.5h0c-.16,0-.27-.22-.24-.5v-.06c0-.28-.08-.51-.24-.51a10.77,10.77,0,0,0-1.67.22,11.27,11.27,0,0,0-1.66.5.61.61,0,0,0-.25.61v.06a.6.6,0,0,1-.25.6h0c-.16.07-.31-.1-.32-.37v-.06c0-.27-.16-.45-.32-.37a14.8,14.8,0,0,0-1.64.9,18.77,18.77,0,0,0-1.59,1.15.72.72,0,0,0-.15.68v.05a.68.68,0,0,1-.16.66h0c-.15.13-.32,0-.37-.22v-.05c-.06-.25-.23-.35-.38-.22q-.75.69-1.5,1.5c-.49.54-1,1.11-1.41,1.7a.73.73,0,0,0-.06.7l0,0a.73.73,0,0,1-.06.7h0c-.13.17-.31.15-.4-.07l0-.05c-.09-.22-.28-.25-.41-.06-.43.62-.86,1.28-1.27,2s-.79,1.42-1.15,2.15a.7.7,0,0,0,0,.69l0,0a.73.73,0,0,1,0,.68v0c-.1.22-.28.26-.4.09l0-.05c-.12-.18-.31-.14-.41.09q-.51,1.14-1,2.37c-.3.82-.58,1.66-.82,2.5a.62.62,0,0,0,.14.65l0,0a.62.62,0,0,1,.15.64h0c-.07.25-.25.36-.39.24l0,0c-.14-.12-.32,0-.39.24-.22.86-.42,1.75-.59,2.66s-.32,1.82-.44,2.73c0,.27.08.53.24.57h0c.16,0,.27.29.24.56h0c0,.27-.19.45-.34.39l0,0c-.16-.06-.32.12-.34.39-.09.92-.15,1.86-.19,2.81s0,1.89,0,2.82c0,.27.15.48.31.45h0c.16,0,.3.17.31.44h0c0,.28-.11.51-.27.52h0c-.17,0-.29.24-.28.52.05.93.12,1.86.23,2.79s.24,1.85.39,2.74c.05.27.22.4.37.3l0,0c.15-.1.31,0,.36.29h0a.58.58,0,0,1-.19.62h0a.58.58,0,0,0-.19.62c.18.88.39,1.74.63,2.6s.5,1.67.78,2.45c.09.24.27.29.41.12l0,0c.13-.17.31-.12.4.1h0a.7.7,0,0,1-.1.68l0,0a.68.68,0,0,0-.09.68c.3.75.63,1.49,1,2.19s.74,1.36,1.13,2c.11.18.3.14.41-.08l0-.05c.11-.22.29-.25.41-.08h0a.76.76,0,0,1,0,.69l0,.05a.7.7,0,0,0,0,.69,17.24,17.24,0,0,0,1.3,1.61,14.62,14.62,0,0,0,1.39,1.35c.14.12.32,0,.39-.27l0-.06c.07-.25.25-.37.39-.26h0a.62.62,0,0,1,.1.65l0,.06a.64.64,0,0,0,.11.65,11.39,11.39,0,0,0,1.52.92,9.94,9.94,0,0,0,1.58.62c.15,0,.31-.16.35-.43v-.07c0-.27.19-.46.35-.43h0c.15,0,.25.29.2.56v.06c-.05.27,0,.54.2.57a9.91,9.91,0,0,0,1.64.17,10.22,10.22,0,0,0,1.66-.12c.17,0,.3-.29.29-.56s0-.34,0-.57l.3-.05.3-.07v.57c0,.28.12.49.28.44a10.7,10.7,0,0,0,1.66-.54,14.06,14.06,0,0,0,1.65-.82.68.68,0,0,0,.2-.65v-.06a.63.63,0,0,1,.2-.63h0c.15-.1.31,0,.34.3v.06c0,.26.19.4.35.3a16.89,16.89,0,0,0,1.58-1.2,20.15,20.15,0,0,0,1.51-1.42.7.7,0,0,0,.11-.69l0-.05a.76.76,0,0,1,.11-.69h0c.13-.15.31-.09.39.15v.05c.07.24.25.31.4.15.47-.55.94-1.12,1.39-1.75s.89-1.27,1.3-1.93a.73.73,0,0,0,0-.7l0-.05a.71.71,0,0,1,0-.69h0c.12-.2.31-.21.41,0l0,.05c.1.2.29.2.41,0,.39-.7.77-1.43,1.12-2.2s.69-1.55,1-2.34a.67.67,0,0,0-.1-.68l0,0a.67.67,0,0,1-.09-.67h0c.09-.24.27-.32.4-.17l0,0c.13.15.32.07.4-.17.28-.82.55-1.66.79-2.54s.44-1.76.63-2.64a.6.6,0,0,0-.19-.62l0,0c-.15-.06-.24-.34-.19-.61h0c.05-.26.22-.4.37-.31l0,0c.15.1.33,0,.37-.31.16-.91.29-1.83.4-2.77s.18-1.88.23-2.82c0-.27-.12-.51-.28-.52h0c-.16,0-.29-.23-.28-.51h0C419.76,303.82,419.9,303.61,420.06,303.64Zm-17.45,21.95c-6.78,1.38-12.27-7.21-12.27-18.7s5.49-21.58,12.27-23,12.28,7.14,12.28,18.7S409.39,324.21,402.61,325.59Z" transform="translate(-30.61 -130.39)"/><path class="cls-11" d="M402.17,296.07v.87l.44.34.45-.53v-.87l-.45-.34Z" transform="translate(-30.61 -130.39)"/><path class="cls-12" d="M402.61,295.54l.45.34v.87l-.45.53-.44-.34v-.87l.44-.53m0-.37-.09.11-.44.53-.1.11v1.24l.1.08.44.34.09.07.1-.11.44-.53.1-.11v-1.25l-.1-.07-.44-.34-.1-.07Z" transform="translate(-30.61 -130.39)"/><path class="cls-11" d="M397.94,302l.44.35.44-.52v-.87l-.44-.35-.44.52Z" transform="translate(-30.61 -130.39)"/><path class="cls-12" d="M397.94,301.09l.44-.52.44.35v.87l-.44.52-.44-.35v-.87m-.2-.15v1.25l.1.07.44.35.1.07.09-.11.45-.52.09-.12v-1.24l-.09-.07-.45-.35-.09-.07-.1.11-.44.52-.1.11Z" transform="translate(-30.61 -130.39)"/><path class="cls-11" d="M398.38,310.62l.44-.53v-.86l-.44-.35-.44.52v.87Z" transform="translate(-30.61 -130.39)"/><path class="cls-12" d="M397.94,310.27v-.87l.44-.52.44.35v.86l-.44.53-.44-.35m-.2.22.1.08.44.35.1.07.09-.11.45-.52.09-.12V309l-.09-.07-.45-.35-.09-.07-.1.11-.44.52-.1.11v1.24Z" transform="translate(-30.61 -130.39)"/><path class="cls-11" d="M403.06,313.38v-.87l-.45-.34-.44.53v.87l.44.34Z" transform="translate(-30.61 -130.39)"/><path class="cls-12" d="M402.61,313.91l-.44-.34v-.87l.44-.53.45.34v.87l-.45.53m0,.37.1-.11.44-.52.1-.12v-1.24l-.1-.08-.44-.34-.1-.07-.09.11-.44.53-.1.11v1.24l.1.08.44.34.09.07Z" transform="translate(-30.61 -130.39)"/><path class="cls-11" d="M407.29,307.5l-.44-.35-.44.52v.87l.44.35.44-.52Z" transform="translate(-30.61 -130.39)"/><path class="cls-12" d="M407.29,308.37l-.44.52-.44-.35v-.87l.44-.52.44.35v.87m.19.15v-1.25l-.09-.07-.45-.35-.09-.08-.1.12-.44.52-.1.11v1.25l.1.07.44.35.1.07.09-.11.45-.52.09-.11Z" transform="translate(-30.61 -130.39)"/><path class="cls-11" d="M406.85,298.82l-.44.53v.87l.44.34.44-.52v-.87Z" transform="translate(-30.61 -130.39)"/><path class="cls-12" d="M407.29,299.17V300l-.44.52-.44-.34v-.87l.44-.53.44.35m.19-.22-.09-.08-.45-.35-.09-.07-.1.11-.44.52-.1.12v1.24l.1.08.44.34.1.08.09-.11.45-.53.09-.11V299Z" transform="translate(-30.61 -130.39)"/><path class="cls-18" d="M444,202.61c-2.95-11.82-15.44-35.74-22.87-50.06-2.27-4.37-6.37-8-13-7.81L247.5,145.92l-52.64,85a44.55,44.55,0,0,0-6.67,22.32l-2.17,82a5.13,5.13,0,0,0,5.62,5.24l31.8-3.06c-.3-8.94,0-48.14,27.54-50.11,0,0,21.86-1.94,22.33,45.3l112.94-10.88c.42-9.81,3.28-46.17,23.17-47,0,0,15.94-.47,13.13,43.07l2.11.25,2.76-.26a24.28,24.28,0,0,0,22-24.18C449.36,266.29,448.57,221.17,444,202.61Z" transform="translate(-30.61 -130.39)"/><path class="cls-18" d="M247.5,145.92H145.86a8.6,8.6,0,0,0-6.65,2.9l-17.29,18.66a12.54,12.54,0,0,1-3.45,2.74l-15.41,8.3a11.66,11.66,0,0,0-3.32,2.65L55.58,231.82a19.11,19.11,0,0,0-4.7,13l1.67,79.86a8.06,8.06,0,0,0,7.57,7.88l131.52,8,4.94-106.56Z" transform="translate(-30.61 -130.39)"/><polygon class="cls-19" points="26.91 133.77 133.49 137.44 126.77 152.76 29.83 148.31 26.91 133.77"/><path class="cls-20" d="M203.67,320.47v-74a15.74,15.74,0,0,1,.5-3.93l6.2-23.59a15,15,0,0,1,3.06-5.88l24.36-28.8a8.19,8.19,0,0,1,5.28-2.84l27.89-2a3.66,3.66,0,0,1,4.1,3.5l3,84a7.08,7.08,0,0,1-6.69,7.33c-15.09.85-49.74,6.95-52.17,44.95a6.16,6.16,0,0,1-5.52,5.6l-5,.35A4.73,4.73,0,0,1,203.67,320.47Z" transform="translate(-30.61 -130.39)"/><path class="cls-21" d="M213,231.4l2.19-9.62a11.12,11.12,0,0,1,2.43-4.77l22.67-26a8.17,8.17,0,0,1,5.59-2.79l20.23-2.37a3.81,3.81,0,0,1,4.08,3.8v36.75a4.62,4.62,0,0,1-3.77,4.54l-49.52,4.54A3.37,3.37,0,0,1,213,231.4Z" transform="translate(-30.61 -130.39)"/><path class="cls-21" d="M282.28,186.75l14.11,41a7.48,7.48,0,0,0,7.29,5.05L437.13,227a4,4,0,0,0,3.93-4.28l-3.28-20.28a10.18,10.18,0,0,0-.72-3.22L429.53,182a6.42,6.42,0,0,0-5.95-4l-136.87,2.5A4.69,4.69,0,0,0,282.28,186.75Z" transform="translate(-30.61 -130.39)"/><polygon class="cls-22" points="249.88 42.48 255.58 28.73 392.75 26.45 398.92 38.7 249.88 42.48"/><polygon class="cls-23" points="208.49 14.34 201.32 7.42 204.41 0 212.47 0.92 217.24 7.01 216.89 14.37 208.49 14.34"/><polygon class="cls-24" points="171.03 7.01 140.69 6.61 140.65 6.65 143.85 14.37 174.07 14.36 171.03 7.01"/><polygon class="cls-25" points="140.69 6.61 112.08 6.22 114.8 14.38 143.85 14.37 140.65 6.65 140.69 6.61"/><polygon class="cls-26" points="208.49 14.34 201.32 7.42 171.03 7.01 174.07 14.36 208.49 14.34"/><polygon class="cls-27" points="117.26 0.04 112.08 6.22 140.69 6.61 146.95 0.03 117.26 0.04"/><polygon class="cls-28" points="146.95 0.03 140.69 6.61 171.03 7.01 177.69 0.01 146.95 0.03"/><polygon class="cls-29" points="177.69 0.01 171.03 7.01 201.32 7.42 204.41 0 177.69 0.01"/><polygon class="cls-4" points="28.97 96.85 164.25 100.53 186.89 65.84 58.76 62.68 28.97 96.85"/><polygon class="cls-30" points="69.13 50.77 58.76 62.68 186.89 65.84 194.77 53.76 69.13 50.77"/><path class="cls-22" d="M339.12,254.09l-1.07,1.16c-2.82,3-4.46,4.81-6.9,7.4l7.22,5.13,1.38,1-.77,1.52-.2.39,110.6-8.07-.91-17.81-111.4,6.32Z" transform="translate(-30.61 -130.39)"/><path class="cls-18" d="M364.09,264.39a8.62,8.62,0,0,1-2.89.73,4.46,4.46,0,0,1-3.54-1.06,4.76,4.76,0,0,1-1.32-3.56,5.46,5.46,0,0,1,7.3-5.11c-.1.42-.16.63-.27,1.05a4.31,4.31,0,0,0-2.05-.28,3.84,3.84,0,0,0-3.7,4.2c0,2.48,1.46,3.86,3.65,3.71a4,4,0,0,0,1.62-.37l-.05-2.93-1.9.13v-1l3.07-.2C364,261.56,364.05,262.5,364.09,264.39Z" transform="translate(-30.61 -130.39)"/><path class="cls-18" d="M370.67,259.78l-3.62.24c0,1.41.06,2.12.09,3.53l4.05-.28,0,1.05-5.27.38c-.09-3.92-.14-5.88-.23-9.8l5-.32,0,1.06-3.79.25c0,1.23.05,1.85.08,3.09l3.6-.24C370.65,259.15,370.65,259.36,370.67,259.78Z" transform="translate(-30.61 -130.39)"/><path class="cls-18" d="M372.8,264.21c-.14-3.89-.21-5.84-.34-9.74l1.29-.08c1.25,1.9,1.88,2.84,3.15,4.73a27.64,27.64,0,0,1,1.79,3l0,0c-.16-1.28-.24-2.46-.31-4s-.1-2.43-.17-4.05l1.12-.07c.17,3.86.25,5.8.42,9.66l-1.21.09c-1.26-1.88-1.89-2.82-3.14-4.72a27,27,0,0,1-1.85-3.13l0,0c.11,1.22.18,2.39.24,4l.15,4.16Z" transform="translate(-30.61 -130.39)"/><path class="cls-18" d="M383.23,254.88l-2.8.17-.05-1.06,6.8-.41.05,1-2.8.17c.16,3.42.25,5.13.41,8.54l-1.2.09Z" transform="translate(-30.61 -130.39)"/><path class="cls-18" d="M388.21,253.52l1.18-.07.44,8.49,3.93-.27.05,1-5.12.37C388.5,259.25,388.4,257.34,388.21,253.52Z" transform="translate(-30.61 -130.39)"/><path class="cls-18" d="M399.65,257.85l-3.56.23c.07,1.37.1,2.05.17,3.41l4-.28,0,1-5.15.37c-.19-3.79-.29-5.68-.49-9.46l5-.31,0,1-3.77.24.15,3,3.57-.23Z" transform="translate(-30.61 -130.39)"/><path class="cls-18" d="M411.06,261.2a5.76,5.76,0,0,1-2.39.6c-2.57.17-4.59-1.37-4.74-4.44a4.72,4.72,0,0,1,4.57-5.24,4.78,4.78,0,0,1,2.2.28c-.09.4-.14.6-.24,1a4.27,4.27,0,0,0-1.88-.27c-2.15.14-3.52,1.64-3.4,4.1.11,2.3,1.47,3.69,3.69,3.54a4.9,4.9,0,0,0,1.91-.51C410.89,260.63,411,260.82,411.06,261.2Z" transform="translate(-30.61 -130.39)"/><path class="cls-18" d="M414,258.36c-.33,1.21-.5,1.81-.83,3l-1.22.08c1.09-3.83,1.64-5.74,2.75-9.59l1.44-.1c1.39,3.68,2.08,5.52,3.43,9.22l-1.25.08-1.07-2.91Zm3-1.14c-.39-1.06-.59-1.59-1-2.65-.23-.6-.38-1.15-.54-1.68h0c-.11.57-.24,1.15-.4,1.73l-.8,2.78Z" transform="translate(-30.61 -130.39)"/><path class="cls-18" d="M420.62,251.57a12.52,12.52,0,0,1,2.29-.36,3.59,3.59,0,0,1,2.7.57,2.34,2.34,0,0,1,.76,1.77,2.68,2.68,0,0,1-1.7,2.55v0c.72.2,1.15.86,1.38,1.84a15.17,15.17,0,0,0,.75,2.59l-1.22.06a12.91,12.91,0,0,1-.65-2.24c-.3-1.29-.79-1.77-1.87-1.74l-1.11.07.1,4.11-1.18.07Zm1.3,4.23,1.22-.08a1.94,1.94,0,0,0,2-1.95c0-1.23-.91-1.71-2.16-1.62a4.45,4.45,0,0,0-1.18.19C421.87,253.73,421.89,254.42,421.92,255.8Z" transform="translate(-30.61 -130.39)"/><path class="cls-18" d="M432.85,255.69l-3.58.23c0,1.39,0,2.09,0,3.48l4-.2v1.06c-2.05.1-3.08.14-5.12.25-.05-3.85-.07-5.78-.12-9.63,2-.15,3-.23,5-.4v1.06l-3.82.3c0,1.22,0,1.83,0,3l3.59-.24Z" transform="translate(-30.61 -130.39)"/><path class="cls-18" d="M340.18,168a6.74,6.74,0,0,0,2.49-.47,3,3,0,0,0,1.57-1.39,4.18,4.18,0,0,1-.79.38,4,4,0,0,1-1.32.21,2.88,2.88,0,0,1-.86-.12,1.83,1.83,0,0,1-.67-.38,1.46,1.46,0,0,1-.42-.59,1.71,1.71,0,0,1-.08-.79,2.89,2.89,0,0,1,.41-1.15,3.63,3.63,0,0,1,.9-1,4.57,4.57,0,0,1,1.3-.68,5.16,5.16,0,0,1,1.6-.27,3.11,3.11,0,0,1,2.07.53A1.78,1.78,0,0,1,347,164a5.22,5.22,0,0,1-.27,1.19,5.49,5.49,0,0,1-.59,1.19,7.18,7.18,0,0,1-.93,1.09,6.2,6.2,0,0,1-1.29.91,6.75,6.75,0,0,1-1.81.62,13.59,13.59,0,0,1-2.34.24,2.29,2.29,0,0,1,0-.64,2,2,0,0,1,.15-.59Zm2.93-2.45a2.4,2.4,0,0,0,.77-.15,2,2,0,0,0,1-.9,1.61,1.61,0,0,0,.18-.59.76.76,0,0,0-.22-.7,1.18,1.18,0,0,0-.77-.22,2.15,2.15,0,0,0-1.4.54,1.93,1.93,0,0,0-.41.54,2.14,2.14,0,0,0-.18.63.63.63,0,0,0,.24.67A1.33,1.33,0,0,0,343.11,165.5Z" transform="translate(-30.61 -130.39)"/><path class="cls-18" d="M350.15,167.07c.46-1.39.69-2.09,1.14-3.48l-1.64.5a2.09,2.09,0,0,1-.16-.29l-.11-.26a1.31,1.31,0,0,1-.06-.27c0-.08,0-.18,0-.28l4.09-1.34h.44c-.69,2.15-1,3.23-1.74,5.38l1.8,0a2.31,2.31,0,0,1-.11.56,5.53,5.53,0,0,1-.28.65l-5.56.11a3.15,3.15,0,0,1,.41-1.22Z" transform="translate(-30.61 -130.39)"/><path class="cls-18" d="M358.22,166.92c.44-1.38.65-2.07,1.08-3.45l-1.62.49a2.19,2.19,0,0,1-.17-.29l-.11-.25a1.8,1.8,0,0,1-.07-.27l0-.28,4.08-1.32h.43c-.66,2.13-1,3.2-1.67,5.34l1.79,0a2.33,2.33,0,0,1-.11.55,5.16,5.16,0,0,1-.26.65l-5.54.11a3.23,3.23,0,0,1,.39-1.21Z" transform="translate(-30.61 -130.39)"/><path class="cls-18" d="M393.66,160.45c2.1,0,3.15,0,5.25-.1v.08a.22.22,0,0,1,0,.08,1.58,1.58,0,0,1-.12.51,2.78,2.78,0,0,1-.28.54l-3.3.06c-.19.61-.29.91-.48,1.51l2.61,0a3,3,0,0,1-.39,1.21l-2.61,0-.6,1.84,3.37-.05v.14a1.89,1.89,0,0,1-.13.52c-.07.17-.16.35-.25.54l-5.3.09C392.32,164.63,392.76,163.24,393.66,160.45Z" transform="translate(-30.61 -130.39)"/><path class="cls-18" d="M401,160.32a10.34,10.34,0,0,1,1.06-.09h.47l.46,0,.73,3.88c1.38-1.58,2.08-2.37,3.49-4l.47-.07.48,0h.47a3.39,3.39,0,0,1,.47.05c-.8,2.84-1.2,4.25-2,7.06-.37,0-.69.06-1,.07a5.71,5.71,0,0,1-.86-.06c.53-1.84.8-2.76,1.34-4.61l-2.82,3.17-.4,0-.37,0h-.37l-.36,0c-.22-1.26-.34-1.89-.56-3.14-.69,1.85-1,2.78-1.71,4.62a6.92,6.92,0,0,1-.86.07,8.07,8.07,0,0,1-.83,0Z" transform="translate(-30.61 -130.39)"/><path class="cls-18" d="M409.25,165.75c.33.09.66.17,1,.23a4.28,4.28,0,0,0,1,.09A3.7,3.7,0,0,0,412,166a2.59,2.59,0,0,0,.63-.21,1.4,1.4,0,0,0,.44-.34.87.87,0,0,0,.2-.47.44.44,0,0,0-.08-.34,1.15,1.15,0,0,0-.27-.27,2.73,2.73,0,0,0-.42-.22l-.47-.22a5.38,5.38,0,0,1-1.27-.76,1,1,0,0,1-.39-.93,2,2,0,0,1,.36-1,2.29,2.29,0,0,1,.79-.72,4.34,4.34,0,0,1,1.18-.47,6.92,6.92,0,0,1,1.51-.19,8,8,0,0,1,1.26,0,7.8,7.8,0,0,1,1.09.22,2.61,2.61,0,0,1-.25.58,2.77,2.77,0,0,1-.45.6,6.06,6.06,0,0,0-.76-.21,4.55,4.55,0,0,0-1.05-.07,4.92,4.92,0,0,0-.52,0,2,2,0,0,0-.51.12,1.28,1.28,0,0,0-.39.24.66.66,0,0,0-.19.39.58.58,0,0,0,.27.56,4.57,4.57,0,0,0,.78.42c.28.12.55.25.79.37a3.79,3.79,0,0,1,.63.4,1.52,1.52,0,0,1,.4.49,1.13,1.13,0,0,1,.09.64,2.29,2.29,0,0,1-.36,1,2.64,2.64,0,0,1-.84.82,4.65,4.65,0,0,1-1.35.56,7.41,7.41,0,0,1-1.87.21,8.67,8.67,0,0,1-2.39-.33,2.55,2.55,0,0,1,.25-.6C409,166.18,409.1,166,409.25,165.75Z" transform="translate(-30.61 -130.39)"/><line class="cls-31" x1="161.4" y1="202.2" x2="192.89" y2="199.37"/><path class="cls-32" d="M336.6,253.91l-6.29-9.1c-2.46,2.68-3.69,4-6.17,6.67-.13-3.85-.2-5.77-.33-9.61l-10,1.67c.11,3.82.17,5.72.28,9.54-2.62-1.83-3.92-2.74-6.53-4.54-2.24,4.32-3.37,6.47-5.64,10.76,3.56,2.47,5.35,3.72,8.94,6.23-3.42,3.56-5.14,5.33-8.58,8.85l6.21,9c2.53-2.57,3.79-3.86,6.31-6.45.11,3.81.17,5.72.28,9.53l10.24-1.34c-.13-3.85-.19-5.77-.33-9.61l6.67,4.75c2.25-4.33,3.36-6.5,5.58-10.86-3.64-2.6-5.46-3.88-9.07-6.44C331.54,259.36,333.23,257.55,336.6,253.91Z" transform="translate(-30.61 -130.39)"/><line class="cls-33" x1="194.77" y1="53.76" x2="69.13" y2="50.78"/><line class="cls-33" x1="28.97" y1="96.85" x2="164.25" y2="100.53"/><path class="cls-22" d="M94.27,251.06l-.64-1.31,1.3-.66c2.73-1.39,4.38-2.23,6.63-3.4l-4-3.44-1.31-1.11L97.49,240l.93-.82L52.2,237.4l-1.06,3.82L51,250l43.57,1.65Z" transform="translate(-30.61 -130.39)"/><path class="cls-22" d="M127.67,240.31l.49,1,.66,1.29-1.28.69-6.48,3.46c1.38,1.16,2.48,2.08,4.23,3.53l1.31,1.08-1.25,1.15-.39.35,63,2.4.64-6.43,1.49-6.07Z" transform="translate(-30.61 -130.39)"/><path class="cls-32" d="M126.84,241.94c-1.29-2.51-1.92-3.76-3.17-6.25l-6.15,3.3c.66-2.35,1-3.53,1.64-5.88l-8.15-.2c-.68,2.34-1,3.51-1.71,5.85l-4.18-3.56c-2.65,2.37-4,3.56-6.65,5.92l5.75,4.87c-3.43,1.77-5.15,2.66-8.62,4.42,1.22,2.48,1.83,3.73,3.07,6.22,2.55-1.29,3.82-1.93,6.35-3.23-.68,2.34-1,3.51-1.71,5.85l8.46.32c.65-2.35,1-3.53,1.64-5.88l4.38,3.64c2.64-2.38,3.95-3.57,6.55-5.95l-5.93-4.95C121.8,244.64,123.48,243.75,126.84,241.94Z" transform="translate(-30.61 -130.39)"/><path class="cls-18" d="M146.68,247.92l-3.36-.13c-.16,1.21-.24,1.81-.41,3l3.72.11c0,.36-.07.54-.13.91-1.89-.07-2.85-.1-4.86-.14.48-3.35.66-5,1.09-8.45l4.73.21c-.05.37-.07.56-.12.93l-3.57-.16c-.14,1.08-.2,1.61-.34,2.68,1.38,0,2,.07,3.37.13C146.75,247.38,146.73,247.56,146.68,247.92Z" transform="translate(-30.61 -130.39)"/><path class="cls-18" d="M155.41,248.55c.12-1.15.26-2.53.42-3.59h0c-.42,1-.92,2-1.51,3.11-.83,1.57-1.24,2.34-2.06,3.93l-.81,0c-.29-1.61-.44-2.39-.75-4-.22-1.18-.41-2.27-.51-3.29h0c-.17,1.05-.42,2.45-.68,3.68-.29,1.41-.44,2.11-.74,3.54l-1,0c.72-3.32,1.07-4.9,1.75-8.32l1.38.06c.35,1.69.53,2.51.86,4.13.19,1,.33,1.95.41,2.81h0c.33-.83.76-1.72,1.29-2.74.82-1.56,1.24-2.34,2.05-4l1.37.06c-.24,3.46-.44,5-.73,8.31l-1.05,0C155.2,250.71,155.27,250,155.41,248.55Z" transform="translate(-30.61 -130.39)"/><path class="cls-18" d="M157.82,251a3.54,3.54,0,0,0,1.87.59,1.79,1.79,0,0,0,2-1.35c.13-.75-.28-1.22-1.36-1.65-1.29-.53-2-1.24-1.87-2.41a2.77,2.77,0,0,1,3.08-2.19,4,4,0,0,1,1.87.49c-.17.36-.26.54-.44.88a3.41,3.41,0,0,0-1.59-.46,1.57,1.57,0,0,0-1.8,1.2c-.12.78.33,1.17,1.45,1.65,1.37.58,2,1.25,1.83,2.43s-1.39,2.35-3.4,2.29a4,4,0,0,1-2.08-.59Z" transform="translate(-30.61 -130.39)"/><path class="cls-18" d="M66.23,245.89c.39-1.32.57-2,1-3.31l-1.07.42a1.9,1.9,0,0,1-.09-.29c0-.09,0-.18,0-.26a1.24,1.24,0,0,1,0-.27v-.27l2.68-1.14h.28c-.58,2.09-.87,3.1-1.47,5.15l1.11,0a3.64,3.64,0,0,1-.12.53,5.1,5.1,0,0,1-.22.61L64.74,247a4.63,4.63,0,0,1,.34-1.16Z" transform="translate(-30.61 -130.39)"/><path class="cls-18" d="M70,246.69a2.79,2.79,0,0,0,1.51-.35,2.47,2.47,0,0,0,1-1.25,2.7,2.7,0,0,1-.5.33,1.62,1.62,0,0,1-.8.13.89.89,0,0,1-.5-.15,1.15,1.15,0,0,1-.38-.38,1.72,1.72,0,0,1-.21-.59,2.36,2.36,0,0,1,0-.75,3.77,3.77,0,0,1,.32-1.1,3.54,3.54,0,0,1,.6-.9,2.55,2.55,0,0,1,.83-.6,2.07,2.07,0,0,1,1-.19,1.42,1.42,0,0,1,1.21.61,2.44,2.44,0,0,1,.22,1.67,8,8,0,0,1-.26,1.13,6.06,6.06,0,0,1-.44,1.09,5.49,5.49,0,0,1-.64,1,4.19,4.19,0,0,1-.82.81,3.16,3.16,0,0,1-1.11.52,3.6,3.6,0,0,1-1.4.13,2,2,0,0,1,0-.61,3.5,3.5,0,0,1,.13-.56Zm1.91-2.21a.88.88,0,0,0,.47-.11,1.31,1.31,0,0,0,.38-.33,1.87,1.87,0,0,0,.27-.48,2.12,2.12,0,0,0,.16-.56,1.07,1.07,0,0,0-.08-.68.53.53,0,0,0-.45-.25.78.78,0,0,0-.48.12,1.27,1.27,0,0,0-.4.34,1.85,1.85,0,0,0-.28.5,3,3,0,0,0-.15.59.84.84,0,0,0,.1.65A.61.61,0,0,0,71.91,244.48Z" transform="translate(-30.61 -130.39)"/><path class="cls-18" d="M76.13,243.77a1.27,1.27,0,0,1-.29-.5,1.57,1.57,0,0,1,0-.73,2.13,2.13,0,0,1,.28-.8,2.61,2.61,0,0,1,.51-.63,2.42,2.42,0,0,1,.69-.41,2,2,0,0,1,.76-.12,1.43,1.43,0,0,1,1.06.45,1.34,1.34,0,0,1,.27,1.14,2.12,2.12,0,0,1-.4,1,3,3,0,0,1-.82.73,2,2,0,0,1,.41.59,1.62,1.62,0,0,1,.06.9,2.51,2.51,0,0,1-.33.93,2.7,2.7,0,0,1-.61.69,2.66,2.66,0,0,1-.78.42,2.3,2.3,0,0,1-.86.12,2.14,2.14,0,0,1-.64-.11,1.3,1.3,0,0,1-.51-.3,1.1,1.1,0,0,1-.3-.5,1.73,1.73,0,0,1,0-.73,2.46,2.46,0,0,1,.53-1.22A3.75,3.75,0,0,1,76.13,243.77Zm.72.57a2.25,2.25,0,0,0-.35.22,1.79,1.79,0,0,0-.32.3,2.08,2.08,0,0,0-.25.38,1.66,1.66,0,0,0-.15.46.69.69,0,0,0,.09.53.54.54,0,0,0,.45.2.78.78,0,0,0,.37-.06.94.94,0,0,0,.33-.2,1.2,1.2,0,0,0,.25-.33,1.38,1.38,0,0,0,.15-.46.73.73,0,0,0,0-.33.65.65,0,0,0-.12-.28.91.91,0,0,0-.2-.24A1.55,1.55,0,0,0,76.85,244.34Zm.52-.94.3-.19a1.42,1.42,0,0,0,.25-.24,1,1,0,0,0,.2-.29,1.14,1.14,0,0,0,.11-.37.63.63,0,0,0-.07-.44.41.41,0,0,0-.36-.19.78.78,0,0,0-.59.22,1,1,0,0,0-.31.62.8.8,0,0,0,0,.31,1.15,1.15,0,0,0,.12.25,1.54,1.54,0,0,0,.17.19Z" transform="translate(-30.61 -130.39)"/><path class="cls-18" d="M81.29,241.38l2.93.11a3.63,3.63,0,0,1-.13.57c-.06.19-.13.39-.22.6L82,242.6c-.19.56-.29.84-.49,1.4l.24,0a1.89,1.89,0,0,1,.24,0,1.25,1.25,0,0,1,.59.14,1.19,1.19,0,0,1,.42.35,1.4,1.4,0,0,1,.23.53,1.57,1.57,0,0,1,0,.65,3,3,0,0,1-.4,1.08,3.06,3.06,0,0,1-.74.82,3.23,3.23,0,0,1-2.06.69,3.92,3.92,0,0,1-.61-.09,2.64,2.64,0,0,1-.66-.25c0-.19.12-.38.19-.57a3.38,3.38,0,0,1,.27-.58,5.23,5.23,0,0,0,.51.22,1.92,1.92,0,0,0,.55.08,1.77,1.77,0,0,0,.5-.05,1.54,1.54,0,0,0,.49-.22,1.59,1.59,0,0,0,.4-.38,1.34,1.34,0,0,0,.22-.56.72.72,0,0,0-.14-.61.91.91,0,0,0-.67-.23,1.75,1.75,0,0,0-.46,0,4,4,0,0,0-.51.18l-.1-.15C80.55,243.61,80.81,242.89,81.29,241.38Z" transform="translate(-30.61 -130.39)"/><ellipse class="cls-18" cx="106.92" cy="265.86" rx="3.27" ry="10.22" transform="translate(-192.76 234.01) rotate(-88.21)"/><polygon class="cls-34" points="91.45 151.14 88.34 151 93.84 136.07 96.97 136.18 91.45 151.14"/><polygon class="cls-34" points="56.12 149.52 53.01 149.38 58.37 134.85 61.49 134.96 56.12 149.52"/><line class="cls-35" x1="29.54" y1="139.99" x2="137.45" y2="144.31"/><line class="cls-35" x1="28.87" y1="144.72" x2="136.77" y2="149.04"/><path class="cls-36" d="M64.31,281.91l-9.55-.41a4.14,4.14,0,0,1-3.94-4l-.47-13.46a4.12,4.12,0,0,1,4.11-4.25l6,.24A4.13,4.13,0,0,1,64.19,263l4.23,13.63a4.12,4.12,0,0,1-3.93,5.33Z" transform="translate(-30.61 -130.39)"/><path class="cls-37" d="M54.46,260.83h.13l5.8.24a3.12,3.12,0,0,1,2.84,2.19l4.23,13.62a3.12,3.12,0,0,1-3,4h-.13l-9.56-.41a3.12,3.12,0,0,1-3-3l-.47-13.45a3.11,3.11,0,0,1,3.11-3.22m0-2h0a5.11,5.11,0,0,0-5.11,5.29l.48,13.45a5.13,5.13,0,0,0,4.88,4.93l9.56.41h.22a5.13,5.13,0,0,0,4.88-6.63l-4.23-13.63a5.13,5.13,0,0,0-4.67-3.59l-5.8-.24Z" transform="translate(-30.61 -130.39)"/><g class="cls-38"><g class="cls-39"><rect class="cls-18" x="38.2" y="267.9" width="41.25" height="4.94" transform="translate(-241.77 79.37) rotate(-65.07)"/><rect class="cls-18" x="46.87" y="269.28" width="40.01" height="2.97" transform="translate(-238.52 92.63) rotate(-66.27)"/></g></g><path class="cls-20" d="M191.64,340.49V288l2.75-57,49.4-73.63a8.77,8.77,0,0,1,7.26-3.9l170-.84" transform="translate(-30.61 -130.39)"/><polygon class="cls-40" points="46.64 186.22 46.64 170.45 120.3 173.66 119.07 190.22 46.64 186.22"/><line class="cls-35" x1="46.65" y1="178.38" x2="119.89" y2="181.41"/><line class="cls-35" x1="46.61" y1="181.12" x2="119.86" y2="184.16"/><line class="cls-35" x1="46.67" y1="183.77" x2="119.49" y2="187.21"/><path class="cls-41" d="M95.19,315.08v11.64a1.54,1.54,0,0,0,1.46,1.53l25,1.24a1.53,1.53,0,0,0,1.61-1.46l.6-11.93a1.54,1.54,0,0,0-1.48-1.61l-25.61-.94A1.54,1.54,0,0,0,95.19,315.08Z" transform="translate(-30.61 -130.39)"/><path class="cls-36" d="M160.29,288.32a5,5,0,0,1-4.16-2.26,6,6,0,0,1-.62-5.55l4.8-12.49a5.18,5.18,0,0,1,4.78-3.45h27a5.42,5.42,0,0,1,5.18,5.63v12.49a5.43,5.43,0,0,1-5.18,5.63Z" transform="translate(-30.61 -130.39)"/><path class="cls-37" d="M192.08,265.57a4.42,4.42,0,0,1,4.18,4.63v12.49a4.42,4.42,0,0,1-4.18,4.63H160.29c-3,0-5-3.39-3.85-6.45l4.8-12.49a4.21,4.21,0,0,1,3.85-2.81h27m0-2h-27a6.17,6.17,0,0,0-5.71,4.1l-4.81,12.48a7,7,0,0,0,.74,6.48,6,6,0,0,0,5,2.69h31.79a6.43,6.43,0,0,0,6.18-6.63V270.2a6.42,6.42,0,0,0-6.18-6.63Z" transform="translate(-30.61 -130.39)"/><polygon class="cls-5" points="183.98 104.68 182.27 102.39 185.55 88.72 194.77 78.36 193.37 104.68 183.98 104.68"/><path class="cls-9" d="M222.9,226.62c-.24,3.1-2,5.49-3.84,5.34s-3.22-2.77-3-5.86,2-5.49,3.84-5.35S223.14,223.52,222.9,226.62Z" transform="translate(-30.61 -130.39)"/><path class="cls-5" d="M232.05,227.31l-10.83,1.16a2.25,2.25,0,0,1-2.48-2h0a2.25,2.25,0,0,1,2-2.47l10.84-1.17a2.25,2.25,0,0,1,2.47,2h0A2.25,2.25,0,0,1,232.05,227.31Z" transform="translate(-30.61 -130.39)"/><rect class="cls-5" x="227.09" y="216.29" width="22.12" height="14.61" rx="4.22" transform="translate(-53.19 -103.59) rotate(-6.15)"/><path class="cls-9" d="M253.78,242.42a2.59,2.59,0,0,0,2.85,2.26l13.15-1.41a2.59,2.59,0,0,0,2.29-2.72Z" transform="translate(-30.61 -130.39)"/><path class="cls-5" d="M272.07,240.42a2.59,2.59,0,0,0-2.85-2.3l-13.15,1.42a2.6,2.6,0,0,0-2.3,2.85,0,0,0,0,1,0,0l18.29-1.87A.57.57,0,0,0,272.07,240.42Z" transform="translate(-30.61 -130.39)"/><path class="cls-9" d="M291.28,265.05a2.6,2.6,0,0,0,2.45-2.68l-.47-13.21a2.59,2.59,0,0,0-2.54-2.49Z" transform="translate(-30.61 -130.39)"/><path class="cls-5" d="M290.59,246.66a2.6,2.6,0,0,0-2.5,2.68l.47,13.22a2.6,2.6,0,0,0,2.68,2.49h0l-.56-18.38Z" transform="translate(-30.61 -130.39)"/><rect class="cls-40" x="159.17" y="305.5" width="21.8" height="13.55" rx="3.17" transform="translate(-21.28 -135.29) rotate(1.7)"/><rect class="cls-18" x="159.17" y="311.17" width="21.8" height="2.21" transform="translate(-21.28 -135.29) rotate(1.7)"/><path class="cls-18" d="M177,312.48c-.08,2.69-3.24,4.79-7.07,4.67s-6.85-2.39-6.77-5.08,3.24-4.79,7.06-4.68S177.07,309.78,177,312.48Z" transform="translate(-30.61 -130.39)"/><path class="cls-40" d="M68.89,313.07l-10.66-.31a3,3,0,0,1-2.66-3.2l.1-5.22a2.94,2.94,0,0,1,2.8-3.06l10.65.3a3,3,0,0,1,2.67,3.21L71.68,310A2.94,2.94,0,0,1,68.89,313.07Z" transform="translate(-30.61 -130.39)"/><polygon class="cls-18" points="41.11 177.95 24.99 177.49 25.03 175.62 41.14 176.08 41.11 177.95"/><path class="cls-18" d="M68.79,307.32c0,2.28-2.37,4.07-5.2,4s-5.08-2-5-4.28,2.37-4.07,5.2-4S68.84,305,68.79,307.32Z" transform="translate(-30.61 -130.39)"/><line class="cls-42" x1="305.92" y1="118.15" x2="417.64" y2="111.48"/><path class="cls-20" d="M422.85,305.4S445,304.65,445,288.68V266" transform="translate(-30.61 -130.39)"/><line class="cls-42" x1="308.36" y1="143.12" x2="418.77" y2="134.87"/><line class="cls-20" x1="241.67" y1="187.21" x2="356.99" y2="177.53"/><line class="cls-20" x1="246.58" y1="111.48" x2="417.11" y2="102.4"/><line class="cls-43" x1="290.43" y1="49.51" x2="305.92" y2="100.98"/><line class="cls-43" x1="330.93" y1="49.01" x2="346.55" y2="99.23"/><line class="cls-43" x1="368.79" y1="48.09" x2="384.36" y2="97.6"/><path class="cls-44" d="M212.88,300.84s6.48-30.81,48.34-35.58" transform="translate(-30.61 -130.39)"/><path class="cls-20" d="M283.29,241.87l2.3,49.71a16,16,0,0,0,17.07,15.21l86.59-7.28" transform="translate(-30.61 -130.39)"/><polygon class="cls-37" points="46.67 164.75 46.64 170.45 120.3 173.66 120.56 167.71 46.67 164.75"/><path class="cls-22" d="M148.24,157.48c-.71,1.18-1.06,1.78-1.8,3.13h-1.31c2.35-4.31,3.43-5.53,5.62-9.46l1.56.05c.52,4,.77,5.26,1,9.53l-1.35,0c-.09-1.34-.14-1.95-.26-3.13Zm3.47-.86c-.12-1.07-.18-1.58-.32-2.64-.08-.6-.1-1.15-.12-1.71h0c-.28.56-.57,1.12-.89,1.67-.64,1.05-1,1.55-1.62,2.61Z" transform="translate(-30.61 -130.39)"/><path class="cls-22" d="M164.08,156.71c.28-1.25.6-2.73.92-3.9h0c-.62,1.09-1.33,2.18-2.17,3.4-1.17,1.71-1.76,2.55-3,4.56l-.95,0c-.11-2-.19-2.85-.36-4.57-.13-1.28-.23-2.44-.24-3.57h0c-.31,1.18-.77,2.66-1.22,4-.52,1.55-.78,2.33-1.35,4.14l-1.2,0c1.34-4.23,1.91-5.45,3.08-9.4l1.63,0c.24,1.93.36,2.76.56,4.51a24.1,24.1,0,0,1,.14,3.12h0a35,35,0,0,1,1.88-3.07c1.18-1.71,1.75-2.52,2.92-4.41l1.63,0c-.73,4-1.07,5.17-2,9.33l-1.22,0C163.55,159.07,163.73,158.29,164.08,156.71Z" transform="translate(-30.61 -130.39)"/><path class="cls-22" d="M168.87,151.8a13.58,13.58,0,0,1,2.37-.14,3.53,3.53,0,0,1,2.51.79,1.59,1.59,0,0,1,.35,1.67,3.06,3.06,0,0,1-2.22,1.92v0a1.72,1.72,0,0,1,1.32,2.3,3.65,3.65,0,0,1-1.38,1.88,5.73,5.73,0,0,1-3.61.86,12.06,12.06,0,0,1-1.9-.16C167.43,156.87,167.89,155.67,168.87,151.8Zm.23,3.81,1.14,0a2.37,2.37,0,0,0,2.55-1.44c.31-1.06-.45-1.53-1.73-1.57a6.19,6.19,0,0,0-1.14.05C169.59,153.9,169.43,154.47,169.1,155.61Zm-1.28,4.4a6.21,6.21,0,0,0,1,.08,2.82,2.82,0,0,0,3-1.77c.37-1.26-.62-1.77-2-1.81l-1,0C168.45,157.84,168.25,158.51,167.82,160Z" transform="translate(-30.61 -130.39)"/><path class="cls-22" d="M178.06,151.92c-.64,2.35-.95,3.3-1.6,5.41s0,3,1.33,3c1.43,0,2.65-.91,3.27-2.88.68-2.12,1-3.07,1.66-5.42l1.28,0c-.67,2.32-1,3.26-1.65,5.34-.88,2.74-2.84,4-4.92,4s-3.08-1.37-2.23-4.14c.65-2.1,1-3,1.58-5.38Z" transform="translate(-30.61 -130.39)"/><path class="cls-22" d="M186.18,152.13l1.26,0c-1,3.57-1.51,4.76-2.6,8.2l4.1.12c-.13.42-.2.63-.34,1.07l-5.34-.15C184.52,157.34,185,156.13,186.18,152.13Z" transform="translate(-30.61 -130.39)"/><path class="cls-22" d="M192.52,158.64c-.79,1.14-1.18,1.71-2,3l-1.29,0c2.59-4,3.77-5.2,6.33-9.23l1.52,0c.08,4.09.2,5.36.19,9.45l-1.32,0c0-1.28,0-1.87,0-3Zm3.47-.81c0-1.05,0-1.56-.07-2.62a16.15,16.15,0,0,1,.05-1.72h0c-.33.57-.67,1.13-1,1.68-.73,1.05-1.09,1.55-1.82,2.57Z" transform="translate(-30.61 -130.39)"/><path class="cls-22" d="M198.7,161.86c1.33-4.05,1.87-5.3,3.16-9.4l1.37,0c.59,2.1.91,3,1.51,4.87a15.85,15.85,0,0,1,.7,3.05l0,0c.32-1.28.67-2.36,1.16-3.79s.8-2.3,1.35-4h1.19c-1.34,4.19-1.88,5.46-3.24,9.54l-1.26,0c-.54-2.1-.84-3-1.43-4.86a19.18,19.18,0,0,1-.77-3.14l0,0c-.33,1.21-.67,2.29-1.19,3.79s-.8,2.31-1.37,4Z" transform="translate(-30.61 -130.39)"/><path class="cls-22" d="M215,162.06a7,7,0,0,1-2.74.4c-2.73-.09-4.18-2-3.13-5a7.43,7.43,0,0,1,6.81-5,4,4,0,0,1,2.17.49c-.26.45-.4.66-.66,1.09a3.49,3.49,0,0,0-1.83-.44,5.41,5.41,0,0,0-5.15,3.88c-.78,2.25.06,3.82,2.42,3.89a5.8,5.8,0,0,0,2.19-.34C215.07,161.43,215.05,161.64,215,162.06Z" transform="translate(-30.61 -130.39)"/><path class="cls-22" d="M223.1,158l-3.8-.08c-.47,1.36-.71,2-1.19,3.46l4.24.14c-.15.43-.22.65-.37,1.11l-5.5-.19c1.38-4.14,1.93-5.47,3.32-9.79h5.31c-.16.48-.23.71-.38,1.17l-4,0c-.43,1.31-.63,1.91-1.05,3.11l3.81.07Z" transform="translate(-30.61 -130.39)"/><path class="cls-45" d="M131.69,167.38" transform="translate(-30.61 -130.39)"/><line class="cls-20" x1="92.69" y1="35.61" x2="205.5" y2="38.34"/><line class="cls-36" x1="142.11" y1="164.75" x2="159.5" y2="127.34"/><line class="cls-36" x1="150.81" y1="164.75" x2="166.9" y2="128.13"/><g class="cls-46"><g class="cls-39"><polygon class="cls-18" points="143.65 165.79 139.33 163.71 156.07 126.3 160.38 128.38 143.65 165.79"/><polygon class="cls-18" points="151.16 165.35 148.55 164.16 164.04 127.53 166.66 128.72 151.16 165.35"/></g></g></svg>